<svg viewBox="0 0 64 64" fill="none" xmlns="http://www.w3.org/2000/svg">
  <!-- v10c - Cleaned ref-12: pure structure, no brackets -->

  <!-- Clean structural spokes -->
  <line x1="32" y1="32" x2="32" y2="14" stroke="#fff" stroke-width="1.0"/>
  <line x1="32" y1="32" x2="45.5" y2="18.5" stroke="#fff" stroke-width="1.0"/>
  <line x1="32" y1="32" x2="50" y2="32" stroke="#fff" stroke-width="1.0"/>
  <line x1="32" y1="32" x2="45.5" y2="45.5" stroke="#fff" stroke-width="1.0"/>
  <line x1="32" y1="32" x2="32" y2="50" stroke="#fff" stroke-width="1.0"/>
  <line x1="32" y1="32" x2="18.5" y2="45.5" stroke="#fff" stroke-width="1.0"/>
  <line x1="32" y1="32" x2="14" y2="32" stroke="#fff" stroke-width="1.0"/>
  <line x1="32" y1="32" x2="18.5" y2="18.5" stroke="#fff" stroke-width="1.0"/>

  <!-- Center dot cluster -->
  <circle cx="32" cy="32" r="2.5" fill="#fff"/>
  <circle cx="30" cy="32" r="1.3" fill="#fff"/>
  <circle cx="34" cy="32" r="1.3" fill="#fff"/>
  <circle cx="32" cy="30" r="1.3" fill="#fff"/>
  <circle cx="32" cy="34" r="1.3" fill="#fff"/>

  <!-- 8 outer dots -->
  <circle cx="32" cy="14" r="2.2" fill="#fff"/>
  <circle cx="45.5" cy="18.5" r="2.2" fill="#fff"/>
  <circle cx="50" cy="32" r="2.2" fill="#fff"/>
  <circle cx="45.5" cy="45.5" r="2.2" fill="#fff"/>
  <circle cx="32" cy="50" r="2.2" fill="#fff"/>
  <circle cx="18.5" cy="45.5" r="2.2" fill="#fff"/>
  <circle cx="14" cy="32" r="2.2" fill="#fff"/>
  <circle cx="18.5" cy="18.5" r="2.2" fill="#fff"/>
</svg>
